{"title":"Stranded.In.Paradise.720p.HDTV.x264_TTL","uid":10749853,"size":2522176083,"categoryP":"video","categoryS":"hd___tv_shows","magnet":"?xt=urn:btih:c06edb7559457ea90aea2b8e37789e0eec6c76eb&amp;dn=Stranded.In.Paradise.720p.HDTV.x264_TTL&amp;tr=udp%3A%2F%2Ftracker.openbittorrent.com%3A80&amp;tr=udp%3A%2F%2Fopen.demonii.com%3A1337&amp;tr=udp%3A%2F%2Ftracker.coppersurfer.tk%3A6969&amp;tr=udp%3A%2F%2Fexodus.desync.com%3A6969","seeders":2,"leechers":0,"uploader":"thetorrentlord","files":-1,"time":1407862875,"description":"Grab the sample and if you like it then go for it.\t\t\t\t\t\t\t\t\t\t\t\t\t\t\n\n\t\t\t\t\t\t\t\t\t\t\t\t\t\t\t\t\t\t\t\n\nEnjoy and please share.\t\t\t\t\t\t\t\t\t\t\t\t\t\t\t\t\t\t\n\n\t\t\t\t\t\t\t\t\t\t\t\t\t\t\t\t\t\t\t\n\nTTLTTLTTLTTLTTLTTLTTLTTLTTLTTLTTLTTLTTLTTLTTLTTLTTLTTLTTLTTLTTLTTLTTLTTLTTLTTLTTLTTL\t\t\t\t\t\t\t\t\t\t\n\n\t\t\t\t\t\t\t\t\t\t\t\t\t\t\t\t\t\t\t\t\n\n\t\t\t\t\t\t\t\t\t\t\t\t\t\t\t\t\n\nStranded.In.Paradise.720p.HDTV.x264_TTL.mkv\nFormat                           : Matroska\nFormat version                   : Version 2\nFile size                        : 2.32 GiB\nDuration                         : 1h 22mn\nOverall bit rate                 : 4 035 Kbps\nEncoded date                     : UTC 2014-08-12 14:45:46\nWriting application              : mkvmerge v3.3.0 ('Language') built on Mar 24 2010 14:59:24\nWriting library                  : libebml v0.8.0 + libmatroska v0.9.0\n\nVideo\nID                               : 1\nFormat                           : AVC\nFormat/Info                      : Advanced Video Codec\nFormat profile                   : &lt;a class=&quot;__cf_email__&quot; href=&quot;/cdn-cgi/l/email-protection&quot; data-cfemail=&quot;b0fdd1d9def0fc839e81&quot;&gt;[email&amp;#160;protected]&lt;/a&gt;&lt;script cf-hash='f9e31' type=&quot;text/javascript&quot;&gt;\n/* &lt;![CDATA[ */!function(){try{var t=&quot;currentScript&quot;in document?document.currentScript:function(){for(var t=document.getElementsByTagName(&quot;script&quot;),e=t.length;e--;)if(t[e].getAttribute(&quot;cf-hash&quot;))return t[e]}();if(t&amp;&amp;t.previousSibling){var e,r,n,i,c=t.previousSibling,a=c.getAttribute(&quot;data-cfemail&quot;);if(a){for(e=&quot;&quot;,r=parseInt(a.substr(0,2),16),n=2;a.length-n;n+=2)i=parseInt(a.substr(n,2),16)^r,e+=String.fromCharCode(i);e=document.createTextNode(e),c.parentNode.replaceChild(e,c)}}}catch(u){}}();/* ]]&gt; */&lt;/script&gt;\nFormat settings, CABAC           : Yes\nFormat settings, ReFrames        : 4 frames\nCodec ID                         : V_MPEG4/ISO/AVC\nDuration                         : 1h 22mn\nBit rate                         : 3 808 Kbps\nWidth                            : 1 280 pixels\nHeight                           : 720 pixels\nDisplay aspect ratio             : 16:9\nFrame rate mode                  : Variable\nFrame rate                       : 29.970 fps\nColor space                      : YUV\nChroma subsampling               : 4:2:0\nBit depth                        : 8 bits\nScan type                        : Progressive\nBits/(Pixel*Frame)               : 0.138\nStream size                      : 2.14 GiB (92%)\nWriting library                  : x264 core 112\n\nLanguage                         : English\nDefault                          : Yes\n\n\nAudio\nID                               : 2\nFormat                           : AC-3\nFormat/Info                      : Audio Coding 3\nMode extension                   : CM (complete main)\nCodec ID                         : A_AC3\nDuration                         : 1h 22mn\nBit rate mode                    : Constant\nBit rate                         : 224 Kbps\nChannel(s)                       : 2 channels\nChannel positions                : Front: L R\nSampling rate                    : 48.0 KHz\nBit depth                        : 16 bits\nCompression mode                 : Lossy\nStream size                      : 132 MiB (6%)\nDefault                          : Yes\nForced                           : No\n\nMenu\n00:00:00.000                     : :Chapter 1\n00:06:00.000                     : :Chapter 2\n00:12:00.000                     : :Chapter 3\n00:18:00.000                     : :Chapter 4\n00:24:00.000                     : :Chapter 5\n00:30:00.000                     : :Chapter 6\n00:36:00.000                     : :Chapter 7\n00:42:00.000                     : :Chapter 8\n00:48:00.000                     : :Chapter 9\n00:54:00.000                     : :Chapter 10\n01:00:00.000                     : :Chapter 11\n01:06:00.000                     : :Chapter 12\n01:12:00.000                     : :Chapter 13\n01:18:00.000                     : :Chapter 14\n\n","torrent":{"xt":"urn:btih:c06edb7559457ea90aea2b8e37789e0eec6c76eb","amp;dn":"Stranded.In.Paradise.720p.HDTV.x264_TTL","amp;tr":["udp%3A%2F%2Ftracker.openbittorrent.com%3A80","udp%3A%2F%2Fopen.demonii.com%3A1337","udp%3A%2F%2Ftracker.coppersurfer.tk%3A6969","udp%3A%2F%2Fexodus.desync.com%3A6969"],"infoHash":"c06edb7559457ea90aea2b8e37789e0eec6c76eb","infoHashBuffer":{"type":"Buffer","data":[192,110,219,117,89,69,126,169,10,234,43,142,55,120,158,14,236,108,118,235]},"announce":[],"urlList":[]}}